<svg width="64" height="64" viewBox="0 0 64 64" fill="none" xmlns="http://www.w3.org/2000/svg">
  <rect width="64" height="64" rx="16" fill="url(#gradient2)"/>
  <path d="M20 18H44C45.1046 18 46 18.8954 46 20V44C46 45.1046 45.1046 46 44 46H20C18.8954 46 18 45.1046 18 44V20C18 18.8954 18.8954 18 20 18Z" stroke="white" stroke-width="2.5" stroke-linecap="round" stroke-linejoin="round"/>
  <path d="M24 26H40M24 32H40M24 38H32" stroke="white" stroke-width="2.5" stroke-linecap="round"/>
  <path d="M36 26L38 28L36 30" stroke="white" stroke-width="2.5" stroke-linecap="round" stroke-linejoin="round" fill="none"/>
  <path d="M30 30L32 32L30 34" stroke="white" stroke-width="2" stroke-linecap="round" stroke-linejoin="round" fill="none"/>
  <defs>
    <linearGradient id="gradient2" x1="0" y1="0" x2="64" y2="64" gradientUnits="userSpaceOnUse">
      <stop stop-color="#3B82F6"/>
      <stop offset="1" stop-color="#2563EB"/>
    </linearGradient>
  </defs>
</svg>
