<svg width="64" height="64" viewBox="0 0 64 64" fill="none" xmlns="http://www.w3.org/2000/svg">
  <defs>
    <linearGradient id="gearGrad" x1="32" y1="0" x2="32" y2="64" gradientUnits="userSpaceOnUse">
      <stop offset="0%" stop-color="#9810FA"/>
      <stop offset="50%" stop-color="#7445DF"/>
      <stop offset="100%" stop-color="#553C9A"/>
    </linearGradient>
    <radialGradient id="centerGrad" cx="50%" cy="50%">
      <stop offset="0%" stop-color="#DBEAFE"/>
      <stop offset="100%" stop-color="#93C5FD"/>
    </radialGradient>
  </defs>
  
  <!-- Main Gear -->
  <path d="M32 8L36 12L40 10L42 14L46 16L44 20L48 24L44 28L46 32L42 34L40 38L36 36L32 40L28 36L24 38L22 34L18 32L20 28L16 24L20 20L18 16L22 14L24 10L28 12L32 8Z" fill="url(#gearGrad)"/>
  
  <!-- Inner Circle -->
  <circle cx="32" cy="32" r="12" fill="url(#centerGrad)"/>
  <circle cx="32" cy="32" r="8" fill="#FFFFFF"/>
  
  <!-- Gear Teeth Details -->
  <rect x="30" y="4" width="4" height="8" rx="2" fill="#7445DF"/>
  <rect x="30" y="52" width="4" height="8" rx="2" fill="#7445DF"/>
  <rect x="4" y="30" width="8" height="4" rx="2" fill="#7445DF"/>
  <rect x="52" y="30" width="8" height="4" rx="2" fill="#7445DF"/>
  
  <!-- Center Dot -->
  <circle cx="32" cy="32" r="3" fill="#9810FA"/>
</svg>
