<svg width="66" height="65" viewBox="0 0 66 65" fill="none" xmlns="http://www.w3.org/2000/svg">
<path d="M33 64.8596C32.4302 64.8596 31.9688 64.3982 31.9688 63.8284V38.9138C31.9688 38.344 32.4302 37.8826 33 37.8826C33.5698 37.8826 34.0313 38.344 34.0313 38.9138V63.8284C34.0313 64.3976 33.5697 64.8596 33 64.8596Z" fill="white"/>
<path d="M33 64.8601C32.4302 64.8601 31.9688 64.3986 31.9688 63.8288C31.9688 61.5958 30.152 59.7786 27.9185 59.7786H6.24512C5.67533 59.7786 5.21387 59.3171 5.21387 58.7473V17.5855C5.21387 17.0157 5.67533 16.5542 6.24512 16.5542H22.0563C22.6261 16.5542 23.0876 17.0157 23.0876 17.5855C23.0876 18.1553 22.6261 18.6167 22.0563 18.6167H7.27638V57.7161H27.9185C30.0343 57.7161 31.9021 58.7963 33 60.4347C34.0979 58.7968 35.9657 57.7161 38.0815 57.7161H58.7237V18.6167H43.926C43.3562 18.6167 42.8948 18.1553 42.8948 17.5855C42.8948 17.0157 43.3562 16.5542 43.926 16.5542H59.7548C60.3246 16.5542 60.7861 17.0157 60.7861 17.5855V58.7473C60.7861 59.3171 60.3246 59.7786 59.7548 59.7786H38.0815C35.8485 59.7786 34.0313 61.5958 34.0313 63.8288C34.0313 64.3981 33.5697 64.8601 33 64.8601Z" fill="white"/>
<path d="M64.9686 64.8597H1.03126C0.461462 64.8597 0 64.3982 0 63.8284V22.7989C0 22.2291 0.461462 21.7677 1.03126 21.7677H6.2451C6.8149 21.7677 7.27636 22.2291 7.27636 22.7989C7.27636 23.3687 6.8149 23.8302 6.2451 23.8302H2.06251V62.7972H63.9375V23.8301H59.7549C59.1851 23.8301 58.7236 23.3686 58.7236 22.7988C58.7236 22.229 59.1851 21.7676 59.7549 21.7676H64.9687C65.5385 21.7676 66 22.229 66 22.7988V63.8283C65.9999 64.3977 65.5384 64.8597 64.9686 64.8597Z" fill="white"/>
<path d="M17.9595 25.6072H12.668C12.0982 25.6072 11.6367 25.1457 11.6367 24.5759C11.6367 24.0061 12.0982 23.5447 12.668 23.5447H17.9595C18.5293 23.5447 18.9908 24.0061 18.9908 24.5759C18.9908 25.1457 18.5293 25.6072 17.9595 25.6072Z" fill="white"/>
<path d="M20.6327 31.0437H12.668C12.0982 31.0437 11.6367 30.5823 11.6367 30.0125C11.6367 29.4427 12.0982 28.9812 12.668 28.9812H20.6327C21.2025 28.9812 21.664 29.4427 21.664 30.0125C21.664 30.5823 21.2021 31.0437 20.6327 31.0437Z" fill="white"/>
<path d="M22.4618 36.4793H12.668C12.0982 36.4793 11.6367 36.0178 11.6367 35.448C11.6367 34.8782 12.0982 34.4167 12.668 34.4167H22.4618C23.0316 34.4167 23.4931 34.8782 23.4931 35.448C23.4931 36.0178 23.0315 36.4793 22.4618 36.4793Z" fill="white"/>
<path d="M26.577 41.9151H12.668C12.0982 41.9151 11.6367 41.4536 11.6367 40.8838C11.6367 40.314 12.0982 39.8525 12.668 39.8525H26.577C27.1467 39.8525 27.6082 40.314 27.6082 40.8838C27.6082 41.4536 27.1466 41.9151 26.577 41.9151Z" fill="white"/>
<path d="M26.577 47.3511H12.668C12.0982 47.3511 11.6367 46.8896 11.6367 46.3198C11.6367 45.75 12.0982 45.2886 12.668 45.2886H26.577C27.1467 45.2886 27.6082 45.75 27.6082 46.3198C27.6082 46.8896 27.1466 47.3511 26.577 47.3511Z" fill="white"/>
<path d="M26.577 52.7866H12.668C12.0982 52.7866 11.6367 52.3252 11.6367 51.7554C11.6367 51.1856 12.0982 50.7241 12.668 50.7241H26.577C27.1467 50.7241 27.6082 51.1856 27.6082 51.7554C27.6082 52.3252 27.1466 52.7866 26.577 52.7866Z" fill="white"/>
<path d="M53.3318 25.6072H48.0234C47.4536 25.6072 46.9922 25.1457 46.9922 24.5759C46.9922 24.0061 47.4536 23.5447 48.0234 23.5447H53.3318C53.9016 23.5447 54.3631 24.0061 54.3631 24.5759C54.3631 25.1457 53.9015 25.6072 53.3318 25.6072Z" fill="white"/>
<path d="M53.3323 31.0437H45.3672C44.7974 31.0437 44.3359 30.5823 44.3359 30.0125C44.3359 29.4427 44.7974 28.9812 45.3672 28.9812H53.3323C53.9021 28.9812 54.3636 29.4427 54.3636 30.0125C54.3636 30.5823 53.902 31.0437 53.3323 31.0437Z" fill="white"/>
<path d="M53.3324 36.4793H43.5381C42.9683 36.4793 42.5068 36.0178 42.5068 35.448C42.5068 34.8782 42.9683 34.4167 43.5381 34.4167H53.3324C53.9022 34.4167 54.3636 34.8782 54.3636 35.448C54.3636 36.0178 53.9021 36.4793 53.3324 36.4793Z" fill="white"/>
<path d="M53.3323 41.9151H39.4229C38.8531 41.9151 38.3916 41.4536 38.3916 40.8838C38.3916 40.314 38.8531 39.8525 39.4229 39.8525H53.3323C53.9021 39.8525 54.3635 40.314 54.3635 40.8838C54.3634 41.4536 53.9019 41.9151 53.3323 41.9151Z" fill="white"/>
<path d="M53.3323 47.3511H39.4229C38.8531 47.3511 38.3916 46.8896 38.3916 46.3198C38.3916 45.75 38.8531 45.2886 39.4229 45.2886H53.3323C53.9021 45.2886 54.3635 45.75 54.3635 46.3198C54.3634 46.8896 53.9019 47.3511 53.3323 47.3511Z" fill="white"/>
<path d="M53.3323 52.7866H39.4229C38.8531 52.7866 38.3916 52.3252 38.3916 51.7554C38.3916 51.1856 38.8531 50.7241 39.4229 50.7241H53.3323C53.9021 50.7241 54.3635 51.1856 54.3635 51.7554C54.3635 52.3252 53.9019 52.7866 53.3323 52.7866Z" fill="white"/>
<path d="M36.6955 36.0555H29.2864C27.9092 36.0555 26.7891 34.9353 26.7891 33.5581V30.6062C26.7891 30.0364 27.2505 29.575 27.8203 29.575H38.1616C38.7314 29.575 39.1928 30.0364 39.1928 30.6062V33.5581C39.1928 34.9353 38.0726 36.0555 36.6955 36.0555ZM28.8516 31.6375V33.5581C28.8516 33.7979 29.0467 33.993 29.2864 33.993H36.6955C36.9352 33.993 37.1303 33.7979 37.1303 33.5581V31.6375H28.8516Z" fill="white"/>
<path d="M33.0453 39.9451H32.937C30.688 39.9451 28.8584 38.1151 28.8584 35.8661V35.0754C28.8584 34.5057 29.3199 34.0442 29.8897 34.0442C30.4595 34.0442 30.9209 34.5057 30.9209 35.0754V35.8661C30.9209 36.9781 31.8254 37.8826 32.937 37.8826H33.0453C34.1569 37.8826 35.0614 36.9781 35.0614 35.8661V35.0754C35.0614 34.5057 35.5228 34.0442 36.0926 34.0442C36.6624 34.0442 37.1239 34.5057 37.1239 35.0754V35.8661C37.1239 38.115 35.2943 39.9451 33.0453 39.9451Z" fill="white"/>
<path d="M37.9146 31.6375H28.0675C26.7114 31.6375 25.5474 30.7248 25.2368 29.4181C25.034 28.5665 24.6129 27.7669 24.0182 27.1056C22.0257 24.8901 20.9287 22.0271 20.9287 19.0442C20.9287 15.8551 22.1614 12.8482 24.4002 10.5769C26.6362 8.30859 29.6205 7.03242 32.8028 6.98338C39.4208 6.88151 44.9144 12.1783 45.0505 18.7903C45.1137 21.8681 44.0176 24.821 41.9637 27.1051C41.3694 27.7664 40.9479 28.566 40.7451 29.4181C40.4343 30.7252 39.2702 31.6375 37.9146 31.6375ZM32.9896 9.0446C32.938 9.0446 32.8864 9.04503 32.8345 9.04589C27.4066 9.12922 22.9912 13.6147 22.9912 19.0442C22.9912 21.5171 23.9005 23.8903 25.5522 25.7263C26.3764 26.6433 26.9611 27.7549 27.2434 28.9408C27.3307 29.3082 27.6774 29.5747 28.0676 29.5747H37.9147C38.305 29.5747 38.6516 29.3079 38.7389 28.9404C39.0212 27.7545 39.606 26.6429 40.4302 25.7259C42.1326 23.8327 43.041 21.3843 42.9886 18.8324C42.8767 13.4038 38.4057 9.0446 32.9896 9.0446Z" fill="white"/>
<path d="M35.2723 31.6381C34.7025 31.6381 34.241 31.1767 34.241 30.6069V22.5945H31.7402V30.6069C31.7402 31.1767 31.2788 31.6381 30.709 31.6381C30.1392 31.6381 29.6777 31.1767 29.6777 30.6069V21.5632C29.6777 20.9934 30.1392 20.532 30.709 20.532H35.2723C35.8421 20.532 36.3036 20.9934 36.3036 21.5632V30.6069C36.3036 31.1767 35.842 31.6381 35.2723 31.6381Z" fill="white"/>
<path d="M35.2724 22.5944H30.7091C30.3653 22.5944 30.0443 22.423 29.8527 22.1377C29.661 21.8523 29.6245 21.4902 29.7547 21.1722L32.0364 15.6065C32.1949 15.2193 32.5722 14.9663 32.9907 14.9663C33.4092 14.9663 33.7861 15.2194 33.9449 15.6065L36.2266 21.1722C36.3572 21.4902 36.3203 21.8523 36.1286 22.1377C35.9375 22.423 35.6162 22.5944 35.2724 22.5944ZM32.2466 20.5319H33.7354L32.9912 18.716L32.2466 20.5319Z" fill="white"/>
<path d="M33 5.59015C32.4302 5.59015 31.9688 5.12869 31.9688 4.55889V1.03126C31.9688 0.461462 32.4302 0 33 0C33.5698 0 34.0313 0.461462 34.0313 1.03126V4.559C34.0313 5.12869 33.5697 5.59015 33 5.59015Z" fill="white"/>
<path d="M25.5531 7.58605C25.1969 7.58605 24.8502 7.4013 24.659 7.07048L22.8952 4.01541C22.6103 3.52215 22.7796 2.89134 23.2725 2.60644C23.7653 2.32155 24.3965 2.49046 24.681 2.98415L26.4448 6.03922C26.7297 6.53248 26.5604 7.16329 26.0675 7.44819C25.9055 7.54186 25.7281 7.58605 25.5531 7.58605Z" fill="white"/>
<path d="M20.0988 13.0385C19.9239 13.0385 19.7464 12.9938 19.584 12.9001L16.5285 11.1363C16.0353 10.8514 15.8664 10.221 16.1508 9.72776C16.4353 9.2345 17.0661 9.06559 17.5594 9.35005L20.6149 11.1139C21.1081 11.3988 21.277 12.0291 20.9926 12.5224C20.8018 12.8537 20.455 13.0385 20.0988 13.0385Z" fill="white"/>
<path d="M45.9006 13.0384C45.544 13.0384 45.1977 12.8536 45.0065 12.5224C44.7216 12.0291 44.8909 11.3983 45.3842 11.1138L48.4397 9.35C48.933 9.06511 49.5638 9.23445 49.8482 9.72771C50.1331 10.221 49.9638 10.8518 49.4705 11.1362L46.415 12.9001C46.253 12.9941 46.0755 13.0384 45.9006 13.0384Z" fill="white"/>
<path d="M40.4464 7.58606C40.2716 7.58606 40.0941 7.54133 39.9317 7.44766C39.4385 7.16276 39.2696 6.53195 39.5545 6.03869L41.3183 2.98362C41.6032 2.49036 42.234 2.32145 42.7268 2.60591C43.2201 2.89081 43.389 3.52162 43.1041 4.01488L41.3403 7.06995C41.1494 7.40131 40.8026 7.58606 40.4464 7.58606Z" fill="white"/>
</svg>
