<svg width="71" height="71" viewBox="0 0 71 71" fill="none" xmlns="http://www.w3.org/2000/svg">
<mask id="mask0_570_884" style="mask-type:luminance" maskUnits="userSpaceOnUse" x="0" y="0" width="71" height="71">
<path d="M0 0H71V71H0V0Z" fill="white"/>
</mask>
<g mask="url(#mask0_570_884)">
<path d="M45.8944 12.7576C46.4034 13.0351 47.0411 12.8478 47.3188 12.3393C47.5965 11.8308 47.4091 11.1937 46.9001 10.9162C44.5976 9.66093 42.1016 8.67986 39.4495 8.0129H39.4494C32.5818 6.28685 25.6704 6.9463 19.5955 9.46669C19.06 9.68885 18.8062 10.3027 19.0286 10.8377C19.251 11.3726 19.8653 11.6262 20.4007 11.404C26.0728 9.05076 32.5226 8.4351 38.9369 10.0472C41.4183 10.6712 43.7485 11.5877 45.8944 12.7576ZM23.9979 69.5339C40.9225 73.7842 58.0839 63.5636 62.4346 46.6972L62.4852 46.4984V46.4982C64.8301 37.1547 62.765 27.7408 57.6122 20.4514C57.2778 19.9782 56.6227 19.8656 56.1491 20.1997C55.6755 20.5339 55.5627 21.1884 55.8972 21.6616C60.7121 28.473 62.6385 37.2622 60.4486 45.9878C56.4639 61.8505 40.374 71.4834 24.5098 67.4994L24.5097 67.4995C21.2908 66.6891 18.3296 65.3848 15.6889 63.6863C15.4868 63.5564 15.2462 63.4996 15.0073 63.5255L8.61808 64.2183C8.61662 64.2184 8.61517 64.2186 8.61371 64.2188C7.16842 64.3817 5.95237 64.0951 5.22851 63.4898C4.59114 62.9568 4.12965 62.0007 4.51168 60.2541L4.5305 60.1704L4.53772 60.137L5.81707 53.6337C5.86424 53.3939 5.82614 53.1452 5.70935 52.9305C2.27895 46.6252 1.11233 39.0683 2.99837 31.5589L2.99847 31.5586C4.95272 23.7681 9.82914 17.4806 16.1684 13.5677C16.6616 13.2632 16.8144 12.617 16.5097 12.1242C16.2049 11.6314 15.558 11.4787 15.0648 11.7831C8.27921 15.9716 3.05435 22.7068 0.961797 31.0486L0.961898 31.0488C-1.02397 38.956 0.152577 46.9162 3.68448 53.5966L2.48009 59.7189C1.94261 62.0709 2.48333 63.9298 3.8809 65.0985C5.2049 66.2056 7.07898 66.502 8.84462 66.3038H8.84472L14.8683 65.6507C17.6187 67.3737 20.6827 68.6992 23.9973 69.5337L23.9979 69.5339Z" fill="#9810FA"/>
<path d="M45.3193 4.42993V16.2119C45.3193 18.3737 47.0851 20.1384 49.2523 20.1384H50.9165V21.4253C50.9165 22.615 51.4657 23.5258 52.3679 23.9418C53.1654 24.3096 54.0934 24.215 54.7899 23.788L54.8566 23.7457L54.8831 23.7277L59.9897 20.1384H67.0635C69.2289 20.1384 71.0002 18.3755 71.0002 16.2119V4.42993C71.0002 2.26634 69.2289 0.5035 67.0635 0.5035H57.693C57.1154 0.50351 56.6471 0.97069 56.6471 1.54704C56.6471 2.1234 57.1154 2.59068 57.693 2.59069H67.0635C68.0753 2.59069 68.9082 3.42089 68.9082 4.42993V16.2119C68.9082 17.221 68.0753 18.0512 67.0635 18.0512H59.6581C59.4425 18.0512 59.232 18.1178 59.0557 18.2417L53.698 22.0075C53.5621 22.0932 53.3696 22.1044 53.2456 22.0472C53.196 22.0243 53.1498 21.9882 53.1095 21.9195C53.0673 21.8475 53.0086 21.6988 53.0086 21.4253V19.0948C53.0086 18.5185 52.5402 18.0512 51.9625 18.0512H49.2523C48.2423 18.0512 47.4114 17.2228 47.4114 16.2119V4.42993C47.4114 3.41907 48.2423 2.59069 49.2523 2.59069H52.8999C53.4776 2.59067 53.9459 2.1234 53.9459 1.54704C53.9459 0.970692 53.4776 0.503513 52.8999 0.5035H49.2523C47.0851 0.5035 45.3193 2.26816 45.3193 4.42993Z" fill="#9810FA"/>
<path d="M63.4147 14.0994C63.9888 14.0994 64.4542 13.6485 64.4542 13.0923C64.4542 12.5361 63.9888 12.0852 63.4147 12.0852H53.4087C52.8346 12.0852 52.3691 12.5361 52.3691 13.0923C52.3691 13.6485 52.8346 14.0994 53.4087 14.0994H63.4147Z" fill="#9810FA"/>
<path d="M63.4147 8.5603C63.9888 8.5603 64.4542 8.10939 64.4542 7.55321C64.4542 6.99703 63.9888 6.54612 63.4147 6.54612H53.4087C52.8346 6.54612 52.3691 6.99703 52.3691 7.55321C52.3691 8.10939 52.8346 8.5603 53.4087 8.5603H63.4147Z" fill="#9810FA"/>
<path d="M13.0918 45.3611V51.3785C13.0918 53.9014 13.9904 56.0522 15.5424 57.5732C17.0913 59.0912 19.2297 59.9219 21.6016 59.9219C22.1857 59.9219 22.6592 59.4521 22.6592 58.8726C22.6592 58.2931 22.1857 57.8233 21.6016 57.8233C19.7338 57.8233 18.1461 57.1753 17.029 56.0804C15.9149 54.9886 15.2072 53.3922 15.2072 51.3785V45.3611C15.2072 44.7817 14.7336 44.3119 14.1495 44.3119C13.5654 44.3119 13.0918 44.7817 13.0918 45.3611Z" fill="#9810FA"/>
<path d="M46.7705 46.8145C50.4097 47.0576 53.5656 44.3765 53.8581 40.809L53.8644 40.7246L53.8645 40.7233C54.1089 37.1189 51.3398 33.9978 47.672 33.7524C47.6715 33.7524 47.6709 33.7524 47.6704 33.7523C46.5178 33.677 45.4152 33.894 44.4338 34.3364C44.0528 34.5082 43.8086 34.8823 43.8086 35.2942V45.2727C43.8086 45.684 44.0522 46.0577 44.4324 46.2298C45.1527 46.5557 45.9389 46.758 46.7692 46.8144L46.7705 46.8145ZM51.7246 40.582C51.5555 43.0315 49.4006 44.8778 46.9159 44.7118C46.5818 44.6891 46.2603 44.6319 45.9534 44.5442V36.0228C46.4497 35.8805 46.9786 35.8196 47.5263 35.8551C50.0104 36.0213 51.8898 38.1357 51.7246 40.582Z" fill="#9810FA"/>
<path d="M27.6405 19.89C27.6405 21.0362 26.7569 21.9738 25.6807 21.9738C24.6016 21.9738 23.721 21.0371 23.721 19.89C23.721 18.7428 24.6016 17.8062 25.6807 17.8062C26.7569 17.8062 27.6405 18.7437 27.6405 19.89ZM29.7091 19.89C29.7091 17.5328 27.9012 15.6099 25.6807 15.6099C23.4555 15.6099 21.6523 17.5337 21.6523 19.89C21.6523 22.2463 23.4555 24.1702 25.6807 24.1702C27.9012 24.1702 29.7091 22.2472 29.7091 19.89Z" fill="#9810FA"/>
<path d="M40.7333 19.89C40.7333 21.0362 39.8498 21.9738 38.7736 21.9738C37.6974 21.9738 36.8137 21.0362 36.8137 19.89C36.8137 18.7438 37.6974 17.8062 38.7736 17.8062C39.8498 17.8062 40.7333 18.7437 40.7333 19.89ZM42.8019 19.89C42.8018 17.5328 40.9941 15.6099 38.7736 15.6099C36.5532 15.6099 34.7451 17.5327 34.7451 19.89C34.7451 22.2473 36.5532 24.1702 38.7736 24.1702C40.9941 24.1701 42.8019 22.2472 42.8019 19.89Z" fill="#9810FA"/>
<path d="M27.1669 58.9171C27.1668 59.4382 26.7421 59.8693 26.2253 59.8693H23.626C23.1093 59.8693 22.6845 59.4382 22.6844 58.9171V58.9131C22.6844 58.3917 23.1093 57.9606 23.626 57.9606H26.2253C26.7421 57.9606 27.1669 58.3917 27.1669 58.9131V58.9171ZM29.2058 58.9131C29.2058 57.2467 27.8647 55.8937 26.2253 55.8937H23.626C21.9868 55.8937 20.6455 57.2467 20.6455 58.9131V58.9171C20.6455 60.5833 21.9868 61.9363 23.626 61.9363H26.2253C27.8647 61.9363 29.2058 60.5833 29.2058 58.9171V58.9131Z" fill="#9810FA"/>
<path d="M9.58217 40.7247C9.81896 44.3337 12.8338 47.0595 16.3235 46.8145L16.3248 46.8144C17.1137 46.758 17.8618 46.5558 18.5443 46.2287C18.9043 46.0561 19.1347 45.6831 19.1348 45.2727V35.2942C19.1348 34.883 18.9035 34.5094 18.5424 34.3373C17.6122 33.8938 16.5636 33.6771 15.4686 33.7523C15.4681 33.7524 15.4675 33.7524 15.467 33.7524C11.9826 33.9977 9.34528 37.118 9.58217 40.7247ZM16.0749 44.7182C13.7575 44.82 11.7739 42.9935 11.6157 40.5819L11.6156 40.5818C11.4551 38.1373 13.2431 36.0214 15.6055 35.8551C16.1256 35.8196 16.6274 35.8805 17.0966 36.0221V44.5451C16.8069 44.6322 16.5024 44.6891 16.1855 44.7118L16.0749 44.7182Z" fill="#9810FA"/>
<path d="M24.6738 23.1885V28.1728C24.6738 28.7432 25.1247 29.2056 25.6809 29.2056C26.2371 29.2056 26.688 28.7432 26.688 28.1728V23.1885C26.688 22.6182 26.2371 22.1559 25.6809 22.1559C25.1247 22.1559 24.6738 22.6182 24.6738 23.1885Z" fill="#9810FA"/>
<path d="M37.7656 23.1885V28.1728C37.7656 28.7432 38.2165 29.2056 38.7727 29.2056C39.3289 29.2056 39.7798 28.7432 39.7798 28.1728V23.1885C39.7798 22.6182 39.3289 22.1559 38.7727 22.1559C38.2165 22.1559 37.7656 22.6182 37.7656 23.1885Z" fill="#9810FA"/>
<path d="M28.1828 37.1673C28.4137 37.6692 29.0359 37.901 29.5725 37.6851C30.109 37.4691 30.3568 36.8871 30.126 36.3851C29.4458 34.9062 27.8706 34.241 26.4343 34.241C24.998 34.241 23.4229 34.9063 22.7449 36.3865C22.5149 36.8887 22.7636 37.4704 23.3005 37.6856C23.8374 37.9008 24.4592 37.6682 24.6892 37.1659C24.9552 36.5852 25.6248 36.2199 26.4343 36.2199C27.2437 36.2199 27.9152 36.5853 28.1828 37.1673Z" fill="#9810FA"/>
<path d="M31.9749 47.3333C33.416 47.3332 34.9903 46.6542 35.6691 45.15C35.8891 44.6623 35.653 44.0968 35.1417 43.887C34.6304 43.6771 34.0375 43.9023 33.8174 44.3899C33.5324 45.0217 32.8203 45.4106 31.9749 45.4106C31.1295 45.4106 30.4173 45.0217 30.1322 44.3899C29.9122 43.9023 29.3193 43.6771 28.808 43.887C28.2967 44.0968 28.0606 44.6623 28.2806 45.15C28.9593 46.6542 30.5338 47.3333 31.9749 47.3333Z" fill="#9810FA"/>
<path d="M43.7352 46.2912C43.7352 49.0292 41.5135 51.2709 38.804 51.2709H24.1424C21.432 51.2709 19.2072 49.0283 19.2072 46.2912V33.7767C19.2072 31.0351 21.4324 28.793 24.1424 28.793H38.804C41.5131 28.7931 43.7352 31.0342 43.7352 33.7767V46.2912ZM45.8222 33.7767C45.8222 29.8744 42.6684 26.6881 38.804 26.688H24.1424C20.2789 26.688 17.1201 29.8735 17.1201 33.7767V46.2912C17.1201 50.1908 20.2793 53.376 24.1424 53.376H38.804C42.668 53.376 45.8222 50.1899 45.8222 46.2912V33.7767Z" fill="#9810FA"/>
<path d="M39.2621 37.1672C39.4928 37.6692 40.1147 37.901 40.651 37.685C41.1872 37.4691 41.4349 36.8871 41.2042 36.3851C40.5243 34.9061 38.9498 34.2411 37.5139 34.241C36.0779 34.241 34.5035 34.9061 33.8236 36.3851C33.5929 36.8871 33.8406 37.4691 34.3768 37.685C34.9131 37.901 35.5349 37.6692 35.7656 37.1672C36.0331 36.5853 36.7042 36.2199 37.5139 36.2199C38.3234 36.2199 38.9945 36.5853 39.2621 37.1672Z" fill="#9810FA"/>
</g>
</svg>
