<svg width="64" height="64" viewBox="0 0 64 64" fill="none" xmlns="http://www.w3.org/2000/svg">
  <rect width="64" height="64" rx="16" fill="url(#gradient1)"/>
  <path d="M32 20C28 20 24 24 24 28C24 32 28 36 32 36C36 36 40 32 40 28C40 24 36 20 32 20Z" stroke="white" stroke-width="2.5" stroke-linecap="round" stroke-linejoin="round"/>
  <path d="M32 36L32 44M28 40L32 44L36 40" stroke="white" stroke-width="2.5" stroke-linecap="round" stroke-linejoin="round"/>
  <circle cx="20" cy="20" r="3" fill="white"/>
  <circle cx="44" cy="20" r="3" fill="white"/>
  <circle cx="20" cy="44" r="3" fill="white"/>
  <circle cx="44" cy="44" r="3" fill="white"/>
  <path d="M20 20L24 24M44 20L40 24M20 44L24 40M44 44L40 40" stroke="white" stroke-width="2" stroke-linecap="round"/>
</svg>
