<svg width="64" height="64" viewBox="0 0 64 64" fill="none" xmlns="http://www.w3.org/2000/svg">
  <defs>
    <linearGradient id="targetGrad" x1="32" y1="0" x2="32" y2="64" gradientUnits="userSpaceOnUse">
      <stop offset="0%" stop-color="#9810FA"/>
      <stop offset="50%" stop-color="#7445DF"/>
      <stop offset="100%" stop-color="#553C9A"/>
    </linearGradient>
    <radialGradient id="bullseyeGrad" cx="50%" cy="50%">
      <stop offset="0%" stop-color="#FF6B6B"/>
      <stop offset="70%" stop-color="#E63946"/>
      <stop offset="100%" stop-color="#C1121F"/>
    </radialGradient>
    <linearGradient id="dartGrad" x1="32" y1="8" x2="32" y2="32" gradientUnits="userSpaceOnUse">
      <stop offset="0%" stop-color="#60A5FA"/>
      <stop offset="100%" stop-color="#3B82F6"/>
    </linearGradient>
  </defs>
  
  <!-- Target Outer Ring -->
  <circle cx="32" cy="32" r="28" fill="none" stroke="url(#targetGrad)" stroke-width="2"/>
  <circle cx="32" cy="32" r="24" fill="none" stroke="url(#targetGrad)" stroke-width="1.5"/>
  <circle cx="32" cy="32" r="20" fill="none" stroke="url(#targetGrad)" stroke-width="1.5"/>
  
  <!-- Target Inner Rings -->
  <circle cx="32" cy="32" r="16" fill="none" stroke="url(#targetGrad)" stroke-width="1"/>
  <circle cx="32" cy="32" r="12" fill="none" stroke="url(#targetGrad)" stroke-width="1"/>
  
  <!-- Bullseye Center -->
  <circle cx="32" cy="32" r="8" fill="url(#bullseyeGrad)"/>
  <circle cx="32" cy="32" r="4" fill="#FFFFFF"/>
  <circle cx="32" cy="32" r="2" fill="#FF6B6B"/>
  
  <!-- Dart Arrow -->
  <path d="M32 8L30 16L34 16L32 8Z" fill="url(#dartGrad)"/>
  <rect x="30" y="16" width="4" height="16" rx="2" fill="url(#dartGrad)"/>
  
  <!-- Dart Fletching -->
  <path d="M28 28L26 32L30 32L28 28Z" fill="#DBEAFE"/>
  <path d="M36 28L38 32L34 32L36 28Z" fill="#DBEAFE"/>
  
  <!-- Face Recognition Lines -->
  <line x1="8" y1="32" x2="24" y2="32" stroke="url(#targetGrad)" stroke-width="1.5" opacity="0.5"/>
  <line x1="40" y1="32" x2="56" y2="32" stroke="url(#targetGrad)" stroke-width="1.5" opacity="0.5"/>
  <line x1="32" y1="8" x2="32" y2="24" stroke="url(#targetGrad)" stroke-width="1.5" opacity="0.5"/>
  <line x1="32" y1="40" x2="32" y2="56" stroke="url(#targetGrad)" stroke-width="1.5" opacity="0.5"/>
</svg>
