<svg width="64" height="64" viewBox="0 0 64 64" fill="none" xmlns="http://www.w3.org/2000/svg">
  <rect width="64" height="64" rx="16" fill="url(#gradient1)"/>
  <circle cx="32" cy="24" r="8" stroke="white" stroke-width="2.5" fill="none"/>
  <path d="M20 44C20 38 25 34 32 34C39 34 44 38 44 44" stroke="white" stroke-width="2.5" stroke-linecap="round" stroke-linejoin="round"/>
  <path d="M32 14L28 10M32 14L36 10" stroke="white" stroke-width="3" stroke-linecap="round" stroke-linejoin="round"/>
  <circle cx="28" cy="36" r="2.5" fill="white"/>
  <circle cx="36" cy="36" r="2.5" fill="white"/>
  <path d="M30 40C30 41.5 31 42.5 32 42.5C33 42.5 34 41.5 34 40" stroke="white" stroke-width="2.5" stroke-linecap="round"/>
  <path d="M32 10L32 8" stroke="white" stroke-width="3" stroke-linecap="round"/>
  <circle cx="32" cy="8" r="2" fill="white"/>
  <defs>
    <linearGradient id="gradient1" x1="0" y1="0" x2="64" y2="64" gradientUnits="userSpaceOnUse">
      <stop stop-color="#9810FA"/>
      <stop offset="1" stop-color="#7C3AED"/>
    </linearGradient>
  </defs>
</svg>
