<svg width="64" height="64" viewBox="0 0 64 64" fill="none" xmlns="http://www.w3.org/2000/svg">
  <rect width="64" height="64" rx="16" fill="url(#gradient1)"/>
  <path d="M32 18L36 26L44 28L38 34L40 42L32 38L24 42L26 34L20 28L28 26L32 18Z" stroke="white" stroke-width="2.5" stroke-linecap="round" stroke-linejoin="round" fill="none"/>
  <circle cx="32" cy="32" r="4" fill="white"/>
  <path d="M32 46C38.6274 46 44 40.6274 44 34C44 27.3726 38.6274 22 32 22C25.3726 22 20 27.3726 20 34C20 40.6274 25.3726 46 32 46Z" stroke="white" stroke-width="2" stroke-linecap="round" fill="none"/>
  <defs>
    <linearGradient id="gradient1" x1="0" y1="0" x2="64" y2="64" gradientUnits="userSpaceOnUse">
      <stop stop-color="#F59E0B"/>
      <stop offset="1" stop-color="#D97706"/>
    </linearGradient>
  </defs>
</svg>
