<svg width="64" height="64" viewBox="0 0 64 64" fill="none" xmlns="http://www.w3.org/2000/svg">
  <rect width="64" height="64" rx="16" fill="url(#gradient2)"/>
  <path d="M32 18C24.268 18 18 23.268 18 31C18 36.5 21.5 41.2 27 43.5V48L32 45C35.5 45.5 38.5 44.5 42 43L48 45V40.5C50.5 38.5 52 35 52 31C52 23.268 45.732 18 38 18H32Z" stroke="white" stroke-width="2.5" stroke-linecap="round" stroke-linejoin="round"/>
  <circle cx="28" cy="31" r="2" fill="white"/>
  <circle cx="32" cy="31" r="2" fill="white"/>
  <circle cx="36" cy="31" r="2" fill="white"/>
  <path d="M20 20L44 44M44 20L20 44" stroke="white" stroke-width="2" stroke-linecap="round" opacity="0.3"/>
  <defs>
    <linearGradient id="gradient2" x1="0" y1="0" x2="64" y2="64" gradientUnits="userSpaceOnUse">
      <stop stop-color="#3B82F6"/>
      <stop offset="1" stop-color="#2563EB"/>
    </linearGradient>
  </defs>
</svg>
