<svg width="64" height="64" viewBox="0 0 64 64" fill="none" xmlns="http://www.w3.org/2000/svg">
  <defs>
    <linearGradient id="lightningGrad" x1="32" y1="0" x2="32" y2="64" gradientUnits="userSpaceOnUse">
      <stop offset="0%" stop-color="#FFD93D"/>
      <stop offset="50%" stop-color="#FFC107"/>
      <stop offset="100%" stop-color="#FFB300"/>
    </linearGradient>
    <linearGradient id="boltGrad" x1="32" y1="8" x2="32" y2="56" gradientUnits="userSpaceOnUse">
      <stop offset="0%" stop-color="#FFEB3B"/>
      <stop offset="50%" stop-color="#FFD93D"/>
      <stop offset="100%" stop-color="#FFC107"/>
    </linearGradient>
    <radialGradient id="glowGrad" cx="50%" cy="50%">
      <stop offset="0%" stop-color="#FFEB3B" stop-opacity="0.8"/>
      <stop offset="100%" stop-color="#FFC107" stop-opacity="0"/>
    </radialGradient>
  </defs>
  
  <!-- Background Glow -->
  <circle cx="32" cy="32" r="30" fill="url(#glowGrad)"/>
  
  <!-- Lightning Bolt Main -->
  <path d="M32 8L24 28H30L28 40L40 20H34L36 8H32Z" fill="url(#boltGrad)"/>
  
  <!-- Lightning Bolt Outline -->
  <path d="M32 8L24 28H30L28 40L40 20H34L36 8H32Z" fill="none" stroke="#FFB300" stroke-width="1" opacity="0.6"/>
  
  <!-- Inner Lightning Detail -->
  <path d="M32 12L26 28H30L28 36L38 20H34L36 12H32Z" fill="#FFFFFF" opacity="0.3"/>
  
  <!-- Data Points -->
  <circle cx="20" cy="16" r="2" fill="#3B82F6"/>
  <circle cx="44" cy="16" r="2" fill="#3B82F6"/>
  <circle cx="20" cy="48" r="2" fill="#3B82F6"/>
  <circle cx="44" cy="48" r="2" fill="#3B82F6"/>
  
  <!-- Connection Lines -->
  <line x1="20" y1="16" x2="28" y2="24" stroke="#60A5FA" stroke-width="1" opacity="0.4" stroke-dasharray="2,2"/>
  <line x1="36" y1="24" x2="44" y2="16" stroke="#60A5FA" stroke-width="1" opacity="0.4" stroke-dasharray="2,2"/>
  <line x1="20" y1="48" x2="28" y2="40" stroke="#60A5FA" stroke-width="1" opacity="0.4" stroke-dasharray="2,2"/>
  <line x1="36" y1="40" x2="44" y2="48" stroke="#60A5FA" stroke-width="1" opacity="0.4" stroke-dasharray="2,2"/>
</svg>
