<svg width="71" height="67" viewBox="0 0 71 67" fill="none" xmlns="http://www.w3.org/2000/svg">
<path d="M69.7116 55.956H67.9322V20.819C67.9322 18.1796 65.7855 16.033 63.1461 16.033H55.5199C55.4378 15.1216 55.2998 14.1943 55.0477 13.243C53.785 8.46836 50.3118 4.44994 45.5201 2.21773C43.7521 1.3942 41.9453 0.782827 40.1511 0.400718C34.3556 -0.83572 28.527 0.820468 24.1573 4.93584C20.9989 7.90945 19.0416 11.8526 18.526 16.033H7.57375C4.93548 16.033 2.78769 18.1796 2.78769 20.819V55.956H1.00717C0.451688 55.956 0 56.4077 0 56.9643V61.5975C0 64.4742 2.34056 66.8148 5.21722 66.8148H65.5015C68.3782 66.8148 70.7188 64.4742 70.7188 61.5975V56.9643C70.7188 56.4077 70.2671 55.956 69.7116 55.956ZM15.273 28.1567C15.0198 28.7145 15.062 29.3578 15.387 29.8779C15.7087 30.3935 16.263 30.7094 16.8676 30.7242C17.5987 30.7425 17.9021 30.8771 18.0002 30.9353L17.7447 32.361C17.6227 33.0431 17.9386 33.7138 18.5363 34.0526C18.4085 34.4678 18.3515 34.9617 18.5112 35.4647C18.6447 35.8844 18.9652 36.4194 19.7203 36.7958C19.5264 37.7528 19.4864 39.1044 20.3408 40.2348C21.2293 41.413 22.8285 41.9982 25.0641 41.94H29.0209L29.6962 47.9454C29.7327 48.2693 29.9175 48.5568 30.198 48.7233C30.3612 48.8203 30.5459 48.8693 30.7296 48.8693C30.8619 48.8693 30.9942 48.8442 31.1208 48.7929L48.2427 41.8431C48.6534 41.6765 48.9134 41.267 48.8895 40.8245L48.4902 33.2975C48.48 33.0899 48.5598 32.8823 48.7115 32.7306C50.1818 31.2489 53.8523 27.0948 55.1481 21.5046H61.4295C61.8025 21.5046 62.1059 21.8125 62.1059 22.1924V51.8247C62.1059 52.1976 61.8025 52.501 61.4295 52.501H9.29153C8.91855 52.501 8.61514 52.1976 8.61514 51.8247V22.1935C8.61514 21.8137 8.91855 21.5057 9.29153 21.5057H18.169L15.273 28.1567ZM25.5831 6.45059C29.4498 2.80858 34.6031 1.34516 39.7188 2.43559C41.3602 2.78462 43.0164 3.34695 44.6429 4.10319C48.8735 6.07419 51.9338 9.59872 53.0379 13.7745C55.2929 22.3053 49.1666 29.3201 47.2344 31.266C46.671 31.8341 46.371 32.6143 46.4132 33.4081L46.7725 40.1948L31.609 46.3497L30.9828 40.7845C30.9235 40.2576 30.4786 39.8606 29.9494 39.8606H25.0424C23.5014 39.904 22.4566 39.588 21.9992 38.9824C21.4814 38.2968 21.73 37.2292 21.8624 36.7992C21.9719 36.441 21.9331 36.0453 21.754 35.7133C21.5749 35.3814 21.2795 35.143 20.9213 35.0381C20.5837 34.9388 20.4959 34.8373 20.4925 34.8373C20.4719 34.7427 20.5871 34.4438 20.7377 34.2453C20.9316 34.0013 21.0057 33.6842 20.9407 33.3785C20.8746 33.0739 20.6761 32.815 20.3989 32.6724L19.8503 32.3907L20.0739 31.1246C20.132 30.536 19.9655 30.0022 19.5937 29.5825C19.1283 29.0566 18.3629 28.7487 17.3158 28.6654L20.5643 21.2069C20.6419 21.0278 20.6681 20.8293 20.6385 20.6365C19.8526 15.4102 21.7004 10.1074 25.5831 6.45059ZM4.80203 20.819C4.80203 19.2906 6.04531 18.0473 7.57261 18.0473H18.3914C18.3857 18.5275 18.3937 19.0077 18.4268 19.4902H9.29039C7.80644 19.4902 6.59852 20.7027 6.59852 22.1924V51.8247C6.59852 53.3086 7.80644 54.5165 9.29039 54.5165H61.4272C62.9112 54.5165 64.1191 53.3086 64.1191 51.8247V22.1935C64.1191 20.7038 62.9112 19.4914 61.4272 19.4914H55.4811C55.5359 19.018 55.5735 18.5378 55.5884 18.0485H63.145C64.6734 18.0485 65.9156 19.2918 65.9156 20.8202V55.9571H43.6517H27.067H4.80203V20.819ZM42.6514 60.3782H28.0742V57.9738H42.6468L42.6514 60.3782ZM68.7033 61.5975C68.7033 63.3632 67.2672 64.7993 65.5015 64.7993H5.21722C3.45153 64.7993 2.01548 63.3632 2.01548 61.5975V57.9715H3.78459C3.78802 57.9715 3.79144 57.9738 3.79486 57.9738H26.0587V60.385C26.0587 61.4926 26.9598 62.3937 28.0674 62.3937H42.6502C43.7578 62.3937 44.6589 61.4926 44.6589 60.385V57.9738H66.9239C66.9273 57.9738 66.9307 57.9715 66.9342 57.9715H68.7021V61.5975H68.7033Z" fill="#9810FA"/>
<path d="M13.7039 60.9326H7.60385C7.04723 60.9326 6.59668 61.3843 6.59668 61.9398C6.59668 62.4953 7.04837 62.947 7.60385 62.947H13.7039C14.2605 62.947 14.7111 62.4953 14.7111 61.9398C14.7111 61.3843 14.2605 60.9326 13.7039 60.9326Z" fill="#9810FA"/>
<path d="M23.0023 19.9054L24.3071 20.5772C24.4497 20.6502 24.6083 20.689 24.7679 20.689H25.4512C25.6417 21.3095 25.8915 21.9095 26.1971 22.4855L25.7124 22.9703C25.5995 23.0843 25.5139 23.2224 25.466 23.3752L25.0177 24.7725C24.9025 25.1318 24.9972 25.5253 25.2641 25.7922L27.2043 27.7324C27.4712 27.9993 27.8659 28.0951 28.224 27.9788L29.6213 27.5316C29.7741 27.4826 29.9133 27.3982 30.0262 27.2841L30.511 26.7994C31.087 27.105 31.687 27.3548 32.3063 27.5453V28.2286C32.3063 28.3882 32.3451 28.5468 32.4181 28.6894L33.0899 29.9942C33.2622 30.3296 33.6078 30.5406 33.9865 30.5406H36.7308C37.1084 30.5406 37.454 30.3296 37.6273 29.9942L38.2992 28.6894C38.3722 28.5468 38.411 28.3882 38.411 28.2286V27.5453C39.0303 27.3548 39.6314 27.105 40.2063 26.7994L40.6911 27.2853C40.8051 27.3982 40.9443 27.4837 41.096 27.5316L42.4933 27.9788C42.8537 28.094 43.2461 27.9982 43.513 27.7324L45.4532 25.7922C45.7201 25.5253 45.8148 25.1318 45.6996 24.7725L45.2513 23.3752C45.2022 23.2224 45.1178 23.0832 45.0049 22.9703L44.5201 22.4855C44.8258 21.9095 45.0756 21.3095 45.2661 20.689H45.9493C46.109 20.689 46.2676 20.6502 46.4102 20.5772L47.715 19.9054C48.0504 19.7332 48.2614 19.3876 48.2614 19.01V16.2657C48.2614 15.8881 48.0504 15.5425 47.715 15.3703L46.4102 14.6985C46.2676 14.6243 46.109 14.5867 45.9482 14.5867H45.265C45.0745 13.9662 44.8247 13.3662 44.519 12.7913L45.0038 12.3066C45.1167 12.1925 45.2022 12.0545 45.2501 11.9017L45.6984 10.5044C45.8136 10.1451 45.7189 9.75158 45.452 9.48467L43.5118 7.54447C43.2449 7.2787 42.8537 7.18289 42.4921 7.29809L41.0971 7.74408C40.9443 7.79312 40.8051 7.87753 40.6922 7.99045L40.2074 8.47522C39.6314 8.16953 39.0315 7.91973 38.411 7.72925V7.04715C38.411 6.88747 38.3722 6.72892 38.2992 6.58634L37.6273 5.28147C37.4551 4.94612 37.1095 4.73511 36.7308 4.73511H33.9865C33.6089 4.73511 33.2633 4.94612 33.0899 5.28147L32.4181 6.58634C32.3451 6.72892 32.3063 6.88747 32.3063 7.04715V7.73039C31.687 7.92087 31.087 8.17067 30.511 8.47636L30.0285 7.99045C29.9144 7.87753 29.7753 7.79198 29.6236 7.74408L28.2263 7.29695C27.867 7.18061 27.4735 7.27756 27.2066 7.54333L25.2664 9.48353C24.9995 9.75044 24.9048 10.144 25.02 10.5032L25.4683 11.9005C25.5173 12.0534 25.6017 12.1925 25.7147 12.3054L26.1994 12.7902C25.8937 13.3662 25.6439 13.9662 25.4535 14.5855H24.7702C24.6094 14.5855 24.452 14.6243 24.3083 14.6973L23.0034 15.3692C22.6681 15.5414 22.457 15.887 22.457 16.2645V19.0089C22.4559 19.3876 22.6669 19.7332 23.0023 19.9054ZM24.4714 16.8805L25.012 16.6022H26.2257C26.6979 16.6022 27.1062 16.2748 27.2089 15.814C27.4176 14.8775 27.7883 13.9879 28.3084 13.1677C28.5617 12.7697 28.5046 12.2484 28.1716 11.9142L27.3104 11.0542L27.1245 10.4736L28.1955 9.40254L28.775 9.58847L29.635 10.4485C29.9692 10.7816 30.4905 10.8397 30.8874 10.5865C31.7086 10.0652 32.5983 9.69569 33.5348 9.48695C33.9956 9.38429 34.323 8.97595 34.323 8.50373V7.29125L34.6013 6.74945H36.116L36.3943 7.29125V8.50487C36.3943 8.97709 36.7217 9.38543 37.1825 9.48809C38.119 9.69683 39.0098 10.0675 39.8288 10.5877C40.228 10.842 40.7481 10.7838 41.0823 10.4508L41.9423 9.59075L42.5218 9.40483L43.5928 10.4759L43.4069 11.0565L42.5457 11.9165C42.2115 12.2507 42.1556 12.772 42.4088 13.17C42.929 13.989 43.2997 14.8798 43.5084 15.8163C43.6111 16.2771 44.0194 16.6045 44.4916 16.6045H45.7053L46.2459 16.8828V18.3975L45.7053 18.6758H44.4916C44.0194 18.6758 43.6111 19.0032 43.5084 19.464C43.2997 20.4016 42.929 21.2913 42.4088 22.1102C42.1556 22.5083 42.2127 23.0296 42.5457 23.3638L43.4069 24.2238L43.5928 24.8044L42.5218 25.8755L41.9423 25.6895L41.0823 24.8295C40.7492 24.4964 40.228 24.4394 39.8299 24.6915C39.0098 25.2127 38.119 25.5823 37.1825 25.791C36.7217 25.8937 36.3943 26.302 36.3943 26.7743V27.9879L36.116 28.5297H34.6013L34.323 27.9879V26.7743C34.323 26.302 33.9956 25.8937 33.5348 25.791C32.5983 25.5823 31.7075 25.2116 30.8885 24.6915C30.4882 24.436 29.9681 24.4953 29.635 24.8295L28.775 25.6895L28.1955 25.8755L27.1245 24.8044L27.3104 24.2238L28.1716 23.3638C28.5058 23.0296 28.5617 22.5083 28.3084 22.1102C27.7883 21.2913 27.4176 20.4005 27.2089 19.464C27.1062 19.0032 26.6979 18.6758 26.2257 18.6758H25.012L24.4714 18.3975V16.8805Z" fill="#9810FA"/>
<path d="M35.3592 25.1659C39.5099 25.1659 42.8873 21.7885 42.8873 17.6377C42.8873 13.487 39.5099 10.1096 35.3592 10.1096C31.2084 10.1096 27.8311 13.487 27.8311 17.6377C27.8311 21.7885 31.2084 25.1659 35.3592 25.1659ZM35.3592 12.124C38.3989 12.124 40.873 14.5968 40.873 17.6377C40.873 20.6787 38.3989 23.1515 35.3592 23.1515C32.3194 23.1515 29.8454 20.6787 29.8454 17.6377C29.8454 14.5968 32.3194 12.124 35.3592 12.124Z" fill="#9810FA"/>
</svg>
