<svg width="64" height="64" viewBox="0 0 64 64" fill="none" xmlns="http://www.w3.org/2000/svg">
  <defs>
    <linearGradient id="cloudMain" x1="32" y1="18" x2="32" y2="50" gradientUnits="userSpaceOnUse">
      <stop offset="0%" stop-color="#60A5FA"/>
      <stop offset="50%" stop-color="#3B82F6"/>
      <stop offset="100%" stop-color="#2563EB"/>
    </linearGradient>
    <linearGradient id="cloudTop" x1="32" y1="22" x2="32" y2="38" gradientUnits="userSpaceOnUse">
      <stop offset="0%" stop-color="#DBEAFE" stop-opacity="0.9"/>
      <stop offset="100%" stop-color="#93C5FD" stop-opacity="0.4"/>
    </linearGradient>
    <radialGradient id="nodeGrad" cx="50%" cy="50%">
      <stop offset="0%" stop-color="#FFFFFF"/>
      <stop offset="70%" stop-color="#DBEAFE"/>
      <stop offset="100%" stop-color="#93C5FD"/>
    </radialGradient>
    <filter id="cloudShadow">
      <feGaussianBlur stdDeviation="1.5" result="coloredBlur"/>
      <feMerge>
        <feMergeNode in="coloredBlur"/>
        <feMergeNode in="SourceGraphic"/>
      </feMerge>
    </filter>
  </defs>
  
  <!-- Main Cloud Shape (perfectly centered at x=32) -->
  <path d="M46 42C48.2091 42 50 40.2091 50 38C50 35.7909 48.2091 34 46 34C45.5 30.5 42.5 28 39 28C36.5 28 34.5 29.5 33.5 31.5C31.5 29.5 28.5 28 26 28C21.5 28 18 31.5 18 36C16.5 36.5 15 38 15 40C15 42.5 17 44.5 19.5 44.5H46C48.2091 44.5 50 42.7091 50 40.5C50 38.2909 48.2091 36.5 46 36.5V42Z" fill="url(#cloudMain)" filter="url(#cloudShadow)"/>
  
  <!-- Cloud Top Highlight (perfectly centered) -->
  <ellipse cx="32" cy="36" rx="14" ry="12" fill="url(#cloudTop)"/>
  <ellipse cx="32" cy="38" rx="12" ry="10" fill="#DBEAFE" opacity="0.3"/>
  
  <!-- Network Nodes (perfectly centered around x=32: 24,28,32,36,40) -->
  <circle cx="24" cy="34" r="3" fill="url(#nodeGrad)" stroke="#3B82F6" stroke-width="1.5"/>
  <circle cx="28" cy="36" r="3" fill="url(#nodeGrad)" stroke="#3B82F6" stroke-width="1.5"/>
  <circle cx="32" cy="34" r="3" fill="url(#nodeGrad)" stroke="#3B82F6" stroke-width="1.5"/>
  <circle cx="36" cy="36" r="3" fill="url(#nodeGrad)" stroke="#3B82F6" stroke-width="1.5"/>
  <circle cx="40" cy="34" r="3" fill="url(#nodeGrad)" stroke="#3B82F6" stroke-width="1.5"/>
  
  <!-- Node Centers (perfectly centered around x=32) -->
  <circle cx="24" cy="34" r="1.5" fill="#3B82F6"/>
  <circle cx="28" cy="36" r="1.5" fill="#3B82F6"/>
  <circle cx="32" cy="34" r="1.5" fill="#3B82F6"/>
  <circle cx="36" cy="36" r="1.5" fill="#3B82F6"/>
  <circle cx="40" cy="34" r="1.5" fill="#3B82F6"/>
  
  <!-- Connection Lines (perfectly centered) -->
  <path d="M24 34L28 36" stroke="#93C5FD" stroke-width="2" opacity="0.7" stroke-linecap="round"/>
  <path d="M28 36L32 34" stroke="#93C5FD" stroke-width="2" opacity="0.7" stroke-linecap="round"/>
  <path d="M32 34L36 36" stroke="#93C5FD" stroke-width="2" opacity="0.7" stroke-linecap="round"/>
  <path d="M36 36L40 34" stroke="#93C5FD" stroke-width="2" opacity="0.7" stroke-linecap="round"/>
  
  <!-- Floating Data Points (balanced around center) -->
  <circle cx="15" cy="48" r="2" fill="#60A5FA" opacity="0.6"/>
  <circle cx="49" cy="50" r="2" fill="#93C5FD" opacity="0.6"/>
  <circle cx="13" cy="52" r="1.5" fill="#BFDBFE" opacity="0.5"/>
  
  <!-- Cloud Depth Shadow (perfectly centered) -->
  <path d="M46 42C48.2091 42 50 40.2091 50 38C50 35.7909 48.2091 34 46 34C45.5 30.5 42.5 28 39 28C36.5 28 34.5 29.5 33.5 31.5C31.5 29.5 28.5 28 26 28C21.5 28 18 31.5 18 36C16.5 36.5 15 38 15 40C15 42.5 17 44.5 19.5 44.5H46C48.2091 44.5 50 42.7091 50 40.5C50 38.2909 48.2091 36.5 46 36.5V42Z" fill="#1E40AF" opacity="0.15" transform="translate(1, 2)"/>
</svg>
