<svg width="1326" height="788" viewBox="0 0 1326 788" fill="none" xmlns="http://www.w3.org/2000/svg" class="timeline-svg-animated">
<path d="M667.841 36V167C678.841 211 710.341 204.336 735.841 204.336C777.273 204.336 1097.98 199.836 1253.31 204.336C1285.34 204.336 1314.65 230.7 1321.85 259.5C1329.05 288.3 1322.85 472.833 1321.85 566.5C1321.85 589 1301.34 635.5 1241.34 635.5C1186.12 635.5 436.174 636.167 64.3406 635.5C41.3406 635.459 21.8405 625 21.8405 674.5C21.8405 701.541 20.3405 761 21.8405 787.5" stroke="black"/>
<path d="M646.952 40V174.5C657.948 214.431 689.437 221.768 714.929 221.768C756.347 221.768 1076.95 217.684 1232.23 221.768C1275.67 222.911 1291.15 237 1300.74 271.83C1307.94 297.967 1301.74 465.434 1300.74 550.438C1300.74 586 1280.24 613.057 1220.26 613.057C1165.06 613.057 415.362 613.662 43.6524 613.057C20.66 613.02 1.16621 623.864 1.16649 648.45C1.16653 652 -0.333013 758.451 1.16649 782.5" stroke="black"/>
<path d="M656.943 24V164.553C667.922 206.281 699.364 213.949 724.817 213.949C766.173 213.949 1086.29 209.681 1241.34 213.949C1284.72 215.143 1300.17 229.866 1309.75 266.264C1316.93 293.577 1310.74 468.582 1309.75 557.412C1309.75 594.574 1289.28 622.849 1229.39 622.849C1174.27 622.849 425.702 623.481 54.5534 622.849C31.5957 622.81 15.7249 634.419 12.1315 659.835C8.53817 685.251 10.6343 741.868 12.1315 767" stroke="#9810FA" stroke-dasharray="15 15"/>
<circle cx="660.674" cy="31.5" r="31.5" fill="#9810FA"/>
</svg>
